<svg width="128" height="128" viewBox="0 0 128 128" fill="none" xmlns="http://www.w3.org/2000/svg">
<g clip-path="url(#clip0_6948_7789)">
<rect width="128" height="128" rx="12.8383" fill="#1769FF"/>
<path d="M23.29 84.1199V43.8804H34.0671V73.4341H50.1164V84.1199H23.29Z" fill="white"/>
<path fill-rule="evenodd" clip-rule="evenodd" d="M67.9185 84.1199C71.5189 84.1199 74.6267 83.0464 76.9422 80.618C79.2577 83.0464 82.3655 84.1199 85.9659 84.1199C90.0818 84.1199 93.5309 82.7313 95.8901 79.5154C98.1877 76.3835 99.2975 71.7205 99.2975 65.4895V43.8804H90.5776V66.1349C90.5776 69.8934 89.9968 72.1139 89.1797 73.363C88.4439 74.4879 87.4283 74.958 85.9659 74.958C84.5104 74.958 83.5463 74.4946 82.8495 73.3849C82.064 72.134 81.521 69.9079 81.521 66.1349V43.8804H72.3634V66.1349C72.3634 69.9079 71.8204 72.134 71.0349 73.3849C70.3381 74.4946 69.374 74.958 67.9185 74.958C66.4561 74.958 65.4405 74.4879 64.7047 73.363C63.8876 72.1139 63.3068 69.8934 63.3068 66.1349V43.8804H54.5869V65.4895C54.5869 71.7205 55.6967 76.3835 57.9943 79.5154C60.3535 82.7313 63.8026 84.1199 67.9185 84.1199Z" fill="white"/>
<circle cx="108.24" cy="48.3514" r="4.47106" fill="white"/>
</g>
<defs>
<clipPath id="clip0_6948_7789">
<rect width="128" height="128" fill="white"/>
</clipPath>
</defs>
</svg>
