<svg width="375" height="500" viewBox="0 0 375 500" fill="none" xmlns="http://www.w3.org/2000/svg">
<rect width="375" height="500" fill="#F7F7F8"/>
<rect width="375" height="500" fill="#F7F7F8"/>
<path d="M135 260.5V206.5H149.462V246.16H171V260.5H135Z" fill="#DFDFE0"/>
<path fill-rule="evenodd" clip-rule="evenodd" d="M194.891 260.5C199.722 260.5 203.893 259.059 207 255.801C210.107 259.059 214.278 260.5 219.109 260.5C224.633 260.5 229.262 258.637 232.427 254.321C235.511 250.118 237 243.86 237 235.499V206.5H225.298V236.365C225.298 241.409 224.519 244.388 223.422 246.065C222.435 247.574 221.072 248.205 219.109 248.205C217.156 248.205 215.862 247.583 214.927 246.094C213.873 244.415 213.145 241.428 213.145 236.365V206.5H200.855V236.365C200.855 241.428 200.127 244.415 199.073 246.094C198.137 247.583 196.844 248.205 194.891 248.205C192.928 248.205 191.565 247.574 190.578 246.065C189.481 244.388 188.702 241.409 188.702 236.365V206.5H177V235.499C177 243.86 178.489 250.118 181.573 254.321C184.738 258.637 189.367 260.5 194.891 260.5Z" fill="#DFDFE0"/>
<circle cx="249" cy="212.5" r="6" fill="#DFDFE0"/>
</svg>
