<svg width="88" height="68" viewBox="0 0 88 68" fill="none" xmlns="http://www.w3.org/2000/svg">
<g filter="url(#filter0_bi_7843_4130)">
<path fill-rule="evenodd" clip-rule="evenodd" d="M73.6203 13.2578C73.6203 13.6034 73.607 13.9458 73.5808 14.2847C75.0179 13.0954 76.8608 12.381 78.8701 12.381C83.4607 12.381 87.1821 16.1101 87.1821 20.7101C87.1821 25.1632 83.6948 28.8 79.3077 29.028V29.0394H47.3722V28.9937C43.1928 28.5557 39.9351 25.0142 39.9351 20.7101C39.9351 16.3973 43.2062 12.8501 47.3979 12.4239C47.8272 5.54914 53.5274 0.106445 60.4961 0.106445C67.7444 0.106445 73.6203 5.9945 73.6203 13.2578Z" fill="url(#paint0_linear_7843_4130)"/>
</g>
<g filter="url(#filter1_f_7843_4130)">
<ellipse cx="35.0812" cy="47.1271" rx="20.3874" ry="6.16131" fill="#4DB4FF"/>
</g>
<g filter="url(#filter2_bi_7843_4130)">
<path fill-rule="evenodd" clip-rule="evenodd" d="M50.2904 22.8059C50.2904 23.3172 50.2707 23.8238 50.2321 24.3251C52.3582 22.5659 55.0844 21.5089 58.057 21.5089C64.8485 21.5089 70.3542 27.026 70.3542 33.8316C70.3542 40.4196 65.1949 45.8001 58.7043 46.1374V46.154H58.1219C58.1003 46.1541 58.0787 46.1542 58.057 46.1542C58.0354 46.1542 58.0138 46.1541 57.9922 46.154H12.8166C12.795 46.1541 12.7734 46.1542 12.7517 46.1542C12.7301 46.1542 12.7085 46.1541 12.6869 46.154H11.4573V46.0867C5.27421 45.4385 0.45459 40.1991 0.45459 33.8316C0.45459 27.4509 5.29417 22.2029 11.4957 21.5724C12.1306 11.4014 20.5638 3.34912 30.8739 3.34912C41.5973 3.34912 50.2904 12.0602 50.2904 22.8059Z" fill="url(#paint1_linear_7843_4130)"/>
</g>
<defs>
<filter id="filter0_bi_7843_4130" x="35.4045" y="-4.42408" width="56.3081" height="37.9942" filterUnits="userSpaceOnUse" colorInterpolationFilters="sRGB">
<feFlood floodOpacity="0" result="BackgroundImageFix"/>
<feGaussianBlur in="BackgroundImageFix" stdDeviation="2.26526"/>
<feComposite in2="SourceAlpha" operator="in" result="effect1_backgroundBlur_7843_4130"/>
<feBlend mode="normal" in="SourceGraphic" in2="effect1_backgroundBlur_7843_4130" result="shape"/>
<feColorMatrix in="SourceAlpha" type="matrix" values="0 0 0 0 0 0 0 0 0 0 0 0 0 0 0 0 0 0 127 0" result="hardAlpha"/>
<feOffset dy="1.29444"/>
<feGaussianBlur stdDeviation="2.58887"/>
<feComposite in2="hardAlpha" operator="arithmetic" k2="-1" k3="1"/>
<feColorMatrix type="matrix" values="0 0 0 0 0 0 0 0 0 0.82 0 0 0 0 1 0 0 0 0.25 0"/>
<feBlend mode="normal" in2="shape" result="effect2_innerShadow_7843_4130"/>
</filter>
<filter id="filter1_f_7843_4130" x="0.455043" y="26.727" width="69.2525" height="40.8004" filterUnits="userSpaceOnUse" colorInterpolationFilters="sRGB">
<feFlood floodOpacity="0" result="BackgroundImageFix"/>
<feBlend mode="normal" in="SourceGraphic" in2="BackgroundImageFix" result="shape"/>
<feGaussianBlur stdDeviation="7.1194" result="effect1_foregroundBlur_7843_4130"/>
</filter>
<filter id="filter2_bi_7843_4130" x="-4.07594" y="-1.18141" width="78.9605" height="51.8662" filterUnits="userSpaceOnUse" colorInterpolationFilters="sRGB">
<feFlood floodOpacity="0" result="BackgroundImageFix"/>
<feGaussianBlur in="BackgroundImageFix" stdDeviation="2.26526"/>
<feComposite in2="SourceAlpha" operator="in" result="effect1_backgroundBlur_7843_4130"/>
<feBlend mode="normal" in="SourceGraphic" in2="effect1_backgroundBlur_7843_4130" result="shape"/>
<feColorMatrix in="SourceAlpha" type="matrix" values="0 0 0 0 0 0 0 0 0 0 0 0 0 0 0 0 0 0 127 0" result="hardAlpha"/>
<feOffset dy="1.29444"/>
<feGaussianBlur stdDeviation="2.58887"/>
<feComposite in2="hardAlpha" operator="arithmetic" k2="-1" k3="1"/>
<feColorMatrix type="matrix" values="0 0 0 0 0 0 0 0 0 0.82 0 0 0 0 1 0 0 0 0.25 0"/>
<feBlend mode="normal" in2="shape" result="effect2_innerShadow_7843_4130"/>
</filter>
<linearGradient id="paint0_linear_7843_4130" x1="51.9086" y1="35.4529" x2="82.2232" y2="0.168421" gradientUnits="userSpaceOnUse">
<stop offset="0.170077" stopColor="#0082DF"/>
<stop offset="0.538523" stopColor="#48B2FF" stopOpacity="0.9"/>
<stop offset="1" stopColor="#3BADFF" stopOpacity="0"/>
</linearGradient>
<linearGradient id="paint1_linear_7843_4130" x1="36.6988" y1="61.3951" x2="63.0013" y2="3.38999" gradientUnits="userSpaceOnUse">
<stop stopColor="#0082DF"/>
<stop offset="0.299998" stopColor="#48B2FF" stopOpacity="0.75"/>
<stop offset="1" stopColor="#3BADFF" stopOpacity="0"/>
</linearGradient>
</defs>
</svg>
