<svg width="206" height="169" viewBox="0 0 206 169" fill="none" xmlns="http://www.w3.org/2000/svg">
<g filter="url(#filter0_bi_7066_8176)">
<path fill-rule="evenodd" clip-rule="evenodd" d="M158.898 58.6953C158.898 59.3442 158.873 59.9874 158.824 60.6237C161.522 58.3906 164.983 57.0489 168.756 57.0489C177.376 57.0489 184.364 64.0514 184.364 72.6893C184.364 81.0511 177.816 87.8802 169.577 88.3083V88.3296H109.61V88.244C101.762 87.4214 95.6445 80.7712 95.6445 72.6893C95.6445 64.5908 101.787 57.9299 109.658 57.1295C110.464 44.2202 121.168 34 134.254 34C147.864 34 158.898 45.0565 158.898 58.6953Z" fill="url(#paint0_linear_7066_8176)"/>
</g>
<g filter="url(#filter1_d_7066_8176)">
<path d="M124.524 60.949C127.178 51.3477 130.683 49.1326 136.216 47.5011C139.979 46.2852 143.147 44.4245 144.12 40.6412C145.29 36.4254 142.698 32.8191 138.585 31.7171C134.85 30.7162 130.58 32.1604 128.961 37.1457L119.529 34.6181C122.512 24.5391 131.444 21.3919 140.763 23.8891C150.951 26.6189 156.415 34.149 154.046 43.1392C152.361 49.2793 148.233 52.4599 142.549 54.0509C137.454 55.5571 134.946 57.6753 133.354 63.3148L133.172 63.9939L124.343 61.6282L124.524 60.949ZM120.244 72.0958C121.055 68.9163 124.432 67.0306 127.687 67.8624C130.808 68.7392 132.79 72.0605 131.94 75.23C131.071 78.4749 127.684 80.3983 124.553 79.5591C121.308 78.6897 119.336 75.3306 120.244 72.0958Z" fill="url(#paint1_linear_7066_8176)"/>
</g>
<g filter="url(#filter2_f_7066_8176)">
<ellipse cx="86.531" cy="122.294" rx="38.283" ry="11.5696" fill="#4DB4FF"/>
</g>
<g filter="url(#filter3_bi_7066_8176)">
<path fill-rule="evenodd" clip-rule="evenodd" d="M115.09 76.6246C115.09 77.5845 115.053 78.5358 114.981 79.477C118.973 76.1735 124.092 74.1889 129.674 74.1889C142.427 74.1889 152.766 84.5486 152.766 97.328C152.766 109.699 143.078 119.802 130.89 120.436V120.467H129.693C129.687 120.467 129.681 120.467 129.674 120.467C129.668 120.467 129.662 120.467 129.655 120.467H44.62C44.6137 120.467 44.6074 120.467 44.6011 120.467C44.5948 120.467 44.5884 120.467 44.5821 120.467H42.1704V120.34C30.5599 119.123 21.5098 109.285 21.5098 97.328C21.5098 85.3465 30.5974 75.492 42.2425 74.3081C43.435 55.2094 59.2706 40.0891 78.6304 40.0891C98.7667 40.0891 115.09 56.4466 115.09 76.6246Z" fill="url(#paint2_linear_7066_8176)"/>
</g>
<path d="M113.625 51.5736L106.801 39.2291C106.723 39.0877 106.574 39 106.412 39H97.7234C97.3922 39 97.1777 39.3496 97.3277 39.6449L100.683 46.248C100.834 46.5432 100.619 46.8929 100.288 46.8929H97L116.115 63.3751C116.491 63.6987 117.034 63.2572 116.793 62.8238L111.287 52.8912C111.123 52.5953 111.337 52.2321 111.675 52.2321H113.236C113.574 52.2321 113.788 51.8694 113.625 51.5736Z" fill="url(#paint3_linear_7066_8176)"/>
<path d="M163.749 37.1034L171.279 23.2321C171.356 23.0891 171.506 23 171.669 23H181.283C181.612 23 181.827 23.3469 181.68 23.642L177.927 31.1616C177.78 31.4567 177.994 31.8036 178.324 31.8036H182L160.877 50.3518C160.504 50.679 159.957 50.2416 160.194 49.8061L166.396 38.415C166.557 38.1192 166.343 37.7589 166.006 37.7589H164.139C163.803 37.7589 163.589 37.3991 163.749 37.1034Z" fill="url(#paint4_linear_7066_8176)"/>
<defs>
<filter id="filter0_bi_7066_8176" x="87.1372" y="25.4927" width="105.733" height="71.3442" filterUnits="userSpaceOnUse" color-interpolation-filters="sRGB">
<feFlood flood-opacity="0" result="BackgroundImageFix"/>
<feGaussianBlur in="BackgroundImageFix" stdDeviation="4.25366"/>
<feComposite in2="SourceAlpha" operator="in" result="effect1_backgroundBlur_7066_8176"/>
<feBlend mode="normal" in="SourceGraphic" in2="effect1_backgroundBlur_7066_8176" result="shape"/>
<feColorMatrix in="SourceAlpha" type="matrix" values="0 0 0 0 0 0 0 0 0 0 0 0 0 0 0 0 0 0 127 0" result="hardAlpha"/>
<feOffset dy="2.43066"/>
<feGaussianBlur stdDeviation="4.86133"/>
<feComposite in2="hardAlpha" operator="arithmetic" k2="-1" k3="1"/>
<feColorMatrix type="matrix" values="0 0 0 0 0 0 0 0 0 0.82 0 0 0 0 1 0 0 0 0.25 0"/>
<feBlend mode="normal" in2="shape" result="effect2_innerShadow_7066_8176"/>
</filter>
<filter id="filter1_d_7066_8176" x="103.629" y="16.2991" width="59.3398" height="75.1938" filterUnits="userSpaceOnUse" color-interpolation-filters="sRGB">
<feFlood flood-opacity="0" result="BackgroundImageFix"/>
<feColorMatrix in="SourceAlpha" type="matrix" values="0 0 0 0 0 0 0 0 0 0 0 0 0 0 0 0 0 0 127 0" result="hardAlpha"/>
<feOffset dy="2"/>
<feGaussianBlur stdDeviation="2.5"/>
<feComposite in2="hardAlpha" operator="out"/>
<feColorMatrix type="matrix" values="0 0 0 0 0 0 0 0 0 0 0 0 0 0 0 0 0 0 0.15 0"/>
<feBlend mode="normal" in2="BackgroundImageFix" result="effect1_dropShadow_7066_8176"/>
<feBlend mode="normal" in="SourceGraphic" in2="effect1_dropShadow_7066_8176" result="shape"/>
</filter>
<filter id="filter2_f_7066_8176" x="21.5107" y="83.9871" width="130.041" height="76.6138" filterUnits="userSpaceOnUse" color-interpolation-filters="sRGB">
<feFlood flood-opacity="0" result="BackgroundImageFix"/>
<feBlend mode="normal" in="SourceGraphic" in2="BackgroundImageFix" result="shape"/>
<feGaussianBlur stdDeviation="13.3687" result="effect1_foregroundBlur_7066_8176"/>
</filter>
<filter id="filter3_bi_7066_8176" x="13.0024" y="31.5818" width="148.271" height="97.3926" filterUnits="userSpaceOnUse" color-interpolation-filters="sRGB">
<feFlood flood-opacity="0" result="BackgroundImageFix"/>
<feGaussianBlur in="BackgroundImageFix" stdDeviation="4.25366"/>
<feComposite in2="SourceAlpha" operator="in" result="effect1_backgroundBlur_7066_8176"/>
<feBlend mode="normal" in="SourceGraphic" in2="effect1_backgroundBlur_7066_8176" result="shape"/>
<feColorMatrix in="SourceAlpha" type="matrix" values="0 0 0 0 0 0 0 0 0 0 0 0 0 0 0 0 0 0 127 0" result="hardAlpha"/>
<feOffset dy="2.43066"/>
<feGaussianBlur stdDeviation="4.86133"/>
<feComposite in2="hardAlpha" operator="arithmetic" k2="-1" k3="1"/>
<feColorMatrix type="matrix" values="0 0 0 0 0 0 0 0 0 0.82 0 0 0 0 1 0 0 0 0.25 0"/>
<feBlend mode="normal" in2="shape" result="effect2_innerShadow_7066_8176"/>
</filter>
<linearGradient id="paint0_linear_7066_8176" x1="118.128" y1="100.373" x2="175.052" y2="34.1164" gradientUnits="userSpaceOnUse">
<stop offset="0.170077" stop-color="#0082DF"/>
<stop offset="0.538523" stop-color="#48B2FF" stop-opacity="0.9"/>
<stop offset="1" stop-color="#3BADFF" stop-opacity="0"/>
</linearGradient>
<linearGradient id="paint1_linear_7066_8176" x1="184.499" y1="22" x2="118.228" y2="110.346" gradientUnits="userSpaceOnUse">
<stop stop-color="#C0E5FF"/>
<stop offset="0.615465" stop-color="white"/>
</linearGradient>
<linearGradient id="paint2_linear_7066_8176" x1="89.5684" y1="149.087" x2="138.959" y2="40.1659" gradientUnits="userSpaceOnUse">
<stop stop-color="#0082DF"/>
<stop offset="0.299998" stop-color="#48B2FF" stop-opacity="0.75"/>
<stop offset="1" stop-color="#3BADFF" stop-opacity="0"/>
</linearGradient>
<linearGradient id="paint3_linear_7066_8176" x1="107.5" y1="39" x2="107.5" y2="65" gradientUnits="userSpaceOnUse">
<stop stop-color="#F8FD00"/>
<stop offset="1" stop-color="#FD9800"/>
</linearGradient>
<linearGradient id="paint4_linear_7066_8176" x1="170.5" y1="23" x2="170.5" y2="52" gradientUnits="userSpaceOnUse">
<stop stop-color="#F8FD00"/>
<stop offset="1" stop-color="#FD9800"/>
</linearGradient>
</defs>
</svg>
