<svg width="206" height="169" viewBox="0 0 206 169" fill="none" xmlns="http://www.w3.org/2000/svg">
<g filter="url(#filter0_f_4070_3978)">
<ellipse cx="102.326" cy="113.682" rx="39.0516" ry="11.7775" fill="#4DB4FF"/>
</g>
<g filter="url(#filter1_bi_4070_3978)">
<path fill-rule="evenodd" clip-rule="evenodd" d="M131.459 67.192C131.459 68.1692 131.422 69.1376 131.348 70.0959C135.42 66.7329 140.642 64.7126 146.336 64.7126C159.345 64.7126 169.891 75.2585 169.891 88.2675C169.891 100.861 160.009 111.146 147.576 111.79V111.822H146.403C146.38 111.822 146.358 111.822 146.336 111.822C146.314 111.822 146.292 111.822 146.27 111.822H59.6213C59.5992 111.822 59.5771 111.822 59.5549 111.822C59.5328 111.822 59.5107 111.822 59.4886 111.822H57.0753V111.694C45.2318 110.454 36 100.439 36 88.2675C36 76.0708 45.27 66.0392 57.1488 64.834C58.3652 45.392 74.5188 30 94.2673 30C114.808 30 131.459 46.6514 131.459 67.192Z" fill="url(#paint0_linear_4070_3978)"/>
</g>
<path fill-rule="evenodd" clip-rule="evenodd" d="M73.6845 142.406C74.2303 142.795 74.8712 143.002 75.5262 143C76.1192 143.004 76.7029 142.842 77.2197 142.53C77.7365 142.218 78.1685 141.766 78.473 141.219L116.136 75.534C116.618 74.6926 116.773 73.6812 116.566 72.7185C116.359 71.7559 115.808 70.9194 115.031 70.39C114.231 69.9063 113.289 69.7701 112.399 70.0092C111.508 70.2484 110.737 70.8448 110.243 71.676L72.5794 137.262C72.3284 137.675 72.1576 138.138 72.0773 138.624C71.997 139.109 72.0087 139.607 72.1119 140.087C72.2151 140.568 72.4076 141.021 72.6779 141.419C72.9481 141.818 73.2905 142.154 73.6845 142.406ZM48.544 143C47.889 143.002 47.2482 142.795 46.7023 142.406C46.3083 142.153 45.9659 141.818 45.6957 141.419C45.4255 141.021 45.233 140.568 45.1298 140.087C45.0265 139.607 45.0147 139.109 45.0951 138.623C45.1754 138.138 45.3462 137.675 45.5973 137.262L72.5785 90.966C72.8139 90.5428 73.1265 90.175 73.4974 89.8847C73.8684 89.5944 74.2902 89.3876 74.7374 89.2767C75.1846 89.1659 75.6481 89.1532 76.0999 89.2395C76.5518 89.3258 76.9828 89.5093 77.367 89.779C78.1435 90.3084 78.6947 91.1449 78.9015 92.1075C79.1083 93.0702 78.9541 94.0816 78.4721 94.923L51.4908 141.219C51.1863 141.766 50.7543 142.218 50.2375 142.53C49.7207 142.842 49.137 143.004 48.544 143ZM104.441 143C103.786 143.002 103.145 142.795 102.599 142.406C102.205 142.154 101.863 141.818 101.592 141.419C101.322 141.021 101.13 140.568 101.026 140.087C100.923 139.607 100.911 139.109 100.992 138.624C101.072 138.138 101.243 137.675 101.494 137.262L120.556 104.42C121.049 103.586 121.827 102.993 122.723 102.771C123.62 102.549 124.561 102.715 125.344 103.233C126.121 103.762 126.672 104.599 126.879 105.561C127.086 106.524 126.931 107.535 126.449 108.377L107.387 141.219C107.076 141.759 106.643 142.206 106.128 142.517C105.612 142.829 105.032 142.995 104.441 143Z" fill="url(#paint1_linear_4070_3978)"/>
<path fill-rule="evenodd" clip-rule="evenodd" d="M68.6234 111.822H60.4238L72.5789 90.966C72.8143 90.5428 73.1268 90.175 73.4978 89.8847C73.8687 89.5944 74.2905 89.3876 74.7377 89.2767C75.1849 89.1659 75.6484 89.1532 76.1003 89.2395C76.5522 89.3258 76.9831 89.5093 77.3674 89.779C78.1439 90.3084 78.6951 91.1449 78.9019 92.1075C79.1087 93.0702 78.9544 94.0816 78.4724 94.923L68.6234 111.822ZM95.3292 111.822H87.1888L110.243 71.676C110.737 70.8448 111.509 70.2484 112.399 70.0092C113.29 69.7701 114.232 69.9063 115.032 70.39C115.808 70.9194 116.359 71.7559 116.566 72.7185C116.773 73.6812 116.619 74.6926 116.137 75.534L95.3292 111.822ZM124.45 111.822H116.26L120.556 104.42C121.049 103.586 121.828 102.993 122.724 102.771C123.62 102.549 124.561 102.715 125.345 103.233C126.121 103.762 126.672 104.599 126.879 105.561C127.086 106.524 126.932 107.535 126.45 108.377L124.45 111.822Z" fill="#E0F3FE"/>
<defs>
<filter id="filter0_f_4070_3978" x="34.3959" y="73.026" width="135.86" height="81.312" filterUnits="userSpaceOnUse" color-interpolation-filters="sRGB">
<feFlood flood-opacity="0" result="BackgroundImageFix"/>
<feBlend mode="normal" in="SourceGraphic" in2="BackgroundImageFix" result="shape"/>
<feGaussianBlur stdDeviation="14.4393" result="effect1_foregroundBlur_4070_3978"/>
</filter>
<filter id="filter1_bi_4070_3978" x="26.8114" y="20.8114" width="152.268" height="100.2" filterUnits="userSpaceOnUse" color-interpolation-filters="sRGB">
<feFlood flood-opacity="0" result="BackgroundImageFix"/>
<feGaussianBlur in="BackgroundImageFix" stdDeviation="4.59431"/>
<feComposite in2="SourceAlpha" operator="in" result="effect1_backgroundBlur_4070_3978"/>
<feBlend mode="normal" in="SourceGraphic" in2="effect1_backgroundBlur_4070_3978" result="shape"/>
<feColorMatrix in="SourceAlpha" type="matrix" values="0 0 0 0 0 0 0 0 0 0 0 0 0 0 0 0 0 0 127 0" result="hardAlpha"/>
<feOffset dy="2.62532"/>
<feGaussianBlur stdDeviation="5.25064"/>
<feComposite in2="hardAlpha" operator="arithmetic" k2="-1" k3="1"/>
<feColorMatrix type="matrix" values="0 0 0 0 0 0 0 0 0 0.82 0 0 0 0 1 0 0 0 0.25 0"/>
<feBlend mode="normal" in2="shape" result="effect2_innerShadow_4070_3978"/>
</filter>
<linearGradient id="paint0_linear_4070_3978" x1="105.425" y1="140.956" x2="155.634" y2="30" gradientUnits="userSpaceOnUse">
<stop stop-color="#0082DF"/>
<stop offset="0.299998" stop-color="#48B2FF" stop-opacity="0.75"/>
<stop offset="1" stop-color="#3BADFF" stop-opacity="0"/>
</linearGradient>
<linearGradient id="paint1_linear_4070_3978" x1="86.0055" y1="69.894" x2="86.0055" y2="143" gradientUnits="userSpaceOnUse">
<stop stop-color="#D7F0FF"/>
<stop offset="1" stop-color="#0072DC"/>
</linearGradient>
</defs>
</svg>
