<svg width="206" height="169" viewBox="0 0 206 169" fill="none" xmlns="http://www.w3.org/2000/svg">
<g filter="url(#filter0_f_4083_4065)">
<ellipse cx="101.885" cy="104.125" rx="38.7917" ry="11.6991" fill="#4DB4FF"/>
</g>
<path fill-rule="evenodd" clip-rule="evenodd" d="M131.763 105.162C131.763 103.095 130.086 101.418 128.019 101.418C125.951 101.418 124.275 103.095 124.275 105.162V111.726L119.633 107.085C118.171 105.623 115.8 105.623 114.338 107.085C112.876 108.547 112.876 110.918 114.338 112.38L118.979 117.021L112.416 117.021C110.348 117.021 108.672 118.697 108.672 120.765C108.672 122.833 110.348 124.509 112.416 124.509L118.98 124.509L114.338 129.151C112.876 130.613 112.876 132.984 114.338 134.446C115.8 135.908 118.171 135.908 119.633 134.446L124.275 129.804V136.368C124.275 138.435 125.951 140.112 128.019 140.112C130.086 140.112 131.763 138.435 131.763 136.368V129.805L136.404 134.446C137.866 135.908 140.237 135.908 141.699 134.446C143.161 132.984 143.161 130.613 141.699 129.151L137.057 124.509L143.621 124.509C145.689 124.509 147.365 122.833 147.365 120.765C147.365 118.697 145.689 117.021 143.621 117.021L137.058 117.021L141.699 112.38C143.161 110.918 143.161 108.547 141.699 107.085C140.237 105.623 137.866 105.623 136.404 107.085L131.763 111.726V105.162Z" fill="url(#paint0_linear_4083_4065)"/>
<g filter="url(#filter1_bi_4083_4065)">
<path fill-rule="evenodd" clip-rule="evenodd" d="M130.824 57.9445C130.824 58.9151 130.787 59.8769 130.713 60.8286C134.759 57.4883 139.946 55.4815 145.602 55.4815C158.524 55.4815 169 65.9572 169 78.8797C169 91.3889 159.183 101.605 146.834 102.246V102.278H56.9353V102.15C45.1705 100.919 36 90.9703 36 78.8797C36 66.764 45.2085 56.7991 57.0084 55.602C58.2167 36.2895 74.2627 21 93.8798 21C114.284 21 130.824 37.5406 130.824 57.9445Z" fill="url(#paint1_linear_4083_4065)"/>
</g>
<path d="M55.237 130.336C54.5867 130.358 53.9444 130.174 53.3912 129.805C52.9926 129.566 52.6429 129.244 52.363 128.857C52.0832 128.47 51.8789 128.026 51.7624 127.552C51.646 127.079 51.6198 126.585 51.6855 126.1C51.7512 125.616 51.9074 125.151 52.1446 124.733L77.5896 77.9077C77.811 77.4799 78.1106 77.1048 78.4705 76.8048C78.8304 76.5047 79.2432 76.286 79.684 76.1617C80.1248 76.0374 80.5846 76.0101 81.0358 76.0814C81.4869 76.1527 81.9202 76.3212 82.3095 76.5767C83.0958 77.0776 83.6674 77.8906 83.9007 78.8398C84.134 79.7891 84.0102 80.7982 83.556 81.6489L58.111 128.474C57.8246 129.026 57.4088 129.489 56.9048 129.815C56.4007 130.142 55.8259 130.321 55.237 130.336Z" fill="url(#paint2_linear_4083_4065)"/>
<path d="M92.1997 127.86C91.5494 127.883 90.9071 127.698 90.3538 127.329C89.9553 127.091 89.6056 126.768 89.3257 126.381C89.0458 125.994 88.8416 125.55 88.7252 125.077C88.6088 124.603 88.5826 124.109 88.6483 123.625C88.7139 123.14 88.8701 122.675 89.1074 122.257L107.08 89.0418C107.545 88.1979 108.301 87.5852 109.184 87.3361C110.068 87.087 111.007 87.2216 111.8 87.7108C112.586 88.2118 113.158 89.0247 113.391 89.974C113.624 90.9232 113.501 91.9323 113.046 92.783L95.0738 125.998C94.7805 126.544 94.3631 127.002 93.8605 127.327C93.358 127.653 92.7865 127.836 92.1997 127.86Z" fill="url(#paint3_linear_4083_4065)"/>
<path d="M66.8515 141.826C66.2013 141.848 65.5589 141.664 65.0057 141.295C64.6072 141.056 64.2574 140.734 63.9776 140.347C63.6977 139.96 63.4935 139.516 63.377 139.042C63.2606 138.569 63.2344 138.075 63.3001 137.59C63.3658 137.106 63.522 136.64 63.7592 136.223L81.7317 103.007C82.1968 102.163 82.9528 101.551 83.8361 101.302C84.7194 101.053 85.659 101.187 86.4517 101.676C87.238 102.177 87.8096 102.99 88.0429 103.94C88.2762 104.889 88.1524 105.898 87.6982 106.749L69.7256 139.964C69.4324 140.51 69.015 140.967 68.5124 141.293C68.0098 141.618 67.4384 141.802 66.8515 141.826Z" fill="url(#paint4_linear_4083_4065)"/>
<path fill-rule="evenodd" clip-rule="evenodd" d="M72.3462 102.278H64.3467L77.5895 77.9077C77.8109 77.48 78.1106 77.1049 78.4705 76.8048C78.8304 76.5048 79.2431 76.2861 79.6839 76.1618C80.1247 76.0375 80.5846 76.0102 81.0357 76.0815C81.4869 76.1528 81.9201 76.3213 82.3094 76.5768C83.0958 77.0777 83.6674 77.8907 83.9006 78.8399C84.1339 79.7891 84.0101 80.7983 83.556 81.649L72.3462 102.278ZM87.1648 102.278H82.2573C82.6896 101.811 83.2332 101.472 83.8362 101.302C84.7195 101.052 85.6591 101.187 86.4518 101.676C86.7151 101.844 86.9543 102.047 87.1648 102.278ZM107.909 102.278H99.9182L107.08 89.0419C107.545 88.198 108.301 87.5852 109.184 87.3361C110.068 87.0871 111.007 87.2217 111.8 87.7109C112.586 88.2118 113.158 89.0248 113.391 89.974C113.625 90.9233 113.501 91.9324 113.047 92.7831L107.909 102.278Z" fill="#E0F3FE"/>
<defs>
<filter id="filter0_f_4083_4065" x="29.07" y="58.4026" width="145.63" height="91.4446" filterUnits="userSpaceOnUse" color-interpolation-filters="sRGB">
<feFlood flood-opacity="0" result="BackgroundImageFix"/>
<feBlend mode="normal" in="SourceGraphic" in2="BackgroundImageFix" result="shape"/>
<feGaussianBlur stdDeviation="17.0116" result="effect1_foregroundBlur_4083_4065"/>
</filter>
<filter id="filter1_bi_4083_4065" x="25.1744" y="10.1744" width="154.651" height="102.929" filterUnits="userSpaceOnUse" color-interpolation-filters="sRGB">
<feFlood flood-opacity="0" result="BackgroundImageFix"/>
<feGaussianBlur in="BackgroundImageFix" stdDeviation="5.41278"/>
<feComposite in2="SourceAlpha" operator="in" result="effect1_backgroundBlur_4083_4065"/>
<feBlend mode="normal" in="SourceGraphic" in2="effect1_backgroundBlur_4083_4065" result="shape"/>
<feColorMatrix in="SourceAlpha" type="matrix" values="0 0 0 0 0 0 0 0 0 0 0 0 0 0 0 0 0 0 127 0" result="hardAlpha"/>
<feOffset dy="3.09302"/>
<feGaussianBlur stdDeviation="6.18604"/>
<feComposite in2="hardAlpha" operator="arithmetic" k2="-1" k3="1"/>
<feColorMatrix type="matrix" values="0 0 0 0 0 0 0 0 0 0.82 0 0 0 0 1 0 0 0 0.25 0"/>
<feBlend mode="normal" in2="shape" result="effect2_innerShadow_4083_4065"/>
</filter>
<linearGradient id="paint0_linear_4083_4065" x1="114.195" y1="132.281" x2="150.945" y2="101.263" gradientUnits="userSpaceOnUse">
<stop stop-color="#0056D6"/>
<stop offset="1" stop-color="#ADD8FF"/>
</linearGradient>
<linearGradient id="paint1_linear_4083_4065" x1="104.963" y1="131.218" x2="154.838" y2="21.0001" gradientUnits="userSpaceOnUse">
<stop stop-color="#0082DF"/>
<stop offset="0.299998" stop-color="#48B2FF" stop-opacity="0.75"/>
<stop offset="1" stop-color="#3BADFF" stop-opacity="0"/>
</linearGradient>
<linearGradient id="paint2_linear_4083_4065" x1="77.6127" y1="58.0288" x2="37.9328" y2="114.901" gradientUnits="userSpaceOnUse">
<stop stop-color="#D7F0FF"/>
<stop offset="1" stop-color="#0072DC"/>
</linearGradient>
<linearGradient id="paint3_linear_4083_4065" x1="108.581" y1="73.6928" x2="79.0826" y2="116.98" gradientUnits="userSpaceOnUse">
<stop stop-color="#D7F0FF"/>
<stop offset="1" stop-color="#0072DC"/>
</linearGradient>
<linearGradient id="paint4_linear_4083_4065" x1="83.2331" y1="87.6584" x2="53.7345" y2="130.945" gradientUnits="userSpaceOnUse">
<stop stop-color="#D7F0FF"/>
<stop offset="1" stop-color="#0072DC"/>
</linearGradient>
</defs>
</svg>
