<svg width="206" height="169" viewBox="0 0 206 169" fill="none" xmlns="http://www.w3.org/2000/svg">
<g filter="url(#filter0_f_4070_3968)">
<ellipse cx="101.905" cy="104.41" rx="39.3914" ry="11.88" fill="#4DB4FF"/>
</g>
<path fill-rule="evenodd" clip-rule="evenodd" d="M87.9511 89.7987C87.9511 87.4906 86.0801 85.6196 83.7721 85.6196C81.4641 85.6196 79.5931 87.4906 79.5931 89.7987V92.4456L77.7217 90.5743C76.0897 88.9422 73.4437 88.9422 71.8117 90.5743C70.1796 92.2063 70.1796 94.8523 71.8117 96.4843L73.6839 98.3566H71.0345C68.7265 98.3566 66.8555 100.228 66.8555 102.536C66.8555 104.844 68.7265 106.715 71.0345 106.715H73.684L71.8119 108.587C70.1798 110.219 70.1798 112.865 71.8119 114.497C73.4439 116.129 76.0899 116.129 77.7219 114.497L79.5931 112.626V115.272C79.5931 117.58 81.4641 119.451 83.7721 119.451C86.0801 119.451 87.9511 117.58 87.9511 115.272V112.624L89.8242 114.497C91.4562 116.129 94.1023 116.129 95.7343 114.497C97.3663 112.865 97.3663 110.219 95.7343 108.587L93.8621 106.715H96.5081C98.8161 106.715 100.687 104.844 100.687 102.536C100.687 100.228 98.8161 98.3566 96.5081 98.3566H93.8622L95.7345 96.4843C97.3665 94.8523 97.3665 92.2063 95.7345 90.5743C94.1025 88.9422 91.4564 88.9422 89.8244 90.5743L87.9511 92.4475V89.7987Z" fill="url(#paint0_linear_4070_3968)"/>
<path fill-rule="evenodd" clip-rule="evenodd" d="M131.124 82.8253C131.124 80.1703 128.972 78.0181 126.317 78.0181C123.662 78.0181 121.51 80.1703 121.51 82.8253V85.9194L119.324 83.7334C117.446 81.8561 114.403 81.8561 112.525 83.7334C110.648 85.6107 110.648 88.6545 112.525 90.5318L114.717 92.7238H111.611C108.956 92.7238 106.804 94.8761 106.804 97.531C106.804 100.186 108.956 102.338 111.611 102.338H114.716L112.523 104.531C110.646 106.408 110.646 109.452 112.523 111.329C114.401 113.207 117.445 113.207 119.322 111.329L121.51 109.141V112.237C121.51 114.892 123.662 117.045 126.317 117.045C128.972 117.045 131.124 114.892 131.124 112.237V109.131L133.323 111.329C135.2 113.207 138.244 113.207 140.121 111.329C141.999 109.452 141.999 106.408 140.121 104.531L137.929 102.338H141.024C143.678 102.338 145.831 100.186 145.831 97.531C145.831 94.8761 143.678 92.7238 141.024 92.7238H137.927L140.119 90.5318C141.997 88.6545 141.997 85.6107 140.119 83.7334C138.242 81.8561 135.198 81.8561 133.321 83.7334L131.124 85.9302V82.8253Z" fill="url(#paint1_linear_4070_3968)"/>
<path fill-rule="evenodd" clip-rule="evenodd" d="M114.804 124.262C114.804 122.315 113.225 120.737 111.279 120.737C109.332 120.737 107.753 122.315 107.753 124.262V126.534L106.148 124.928C104.771 123.551 102.539 123.551 101.162 124.928C99.7854 126.304 99.7854 128.536 101.162 129.913L102.77 131.521H100.496C98.549 131.521 96.9707 133.1 96.9707 135.047C96.9707 136.994 98.549 138.572 100.496 138.572H102.769L101.162 140.179C99.7853 141.556 99.7853 143.788 101.162 145.165C102.539 146.541 104.771 146.541 106.147 145.165L107.753 143.559V145.83C107.753 147.777 109.332 149.355 111.279 149.355C113.225 149.355 114.804 147.777 114.804 145.83V143.555L116.413 145.164C117.79 146.541 120.022 146.541 121.399 145.164C122.775 143.788 122.775 141.556 121.399 140.179L119.792 138.572H122.064C124.011 138.572 125.589 136.994 125.589 135.047C125.589 133.1 124.011 131.521 122.064 131.521H119.791L121.399 129.914C122.775 128.537 122.775 126.305 121.399 124.928C120.022 123.552 117.79 123.552 116.413 124.928L114.804 126.538V124.262Z" fill="url(#paint2_linear_4070_3968)"/>
<g filter="url(#filter1_bi_4070_3968)">
<path fill-rule="evenodd" clip-rule="evenodd" d="M131.294 57.5156C131.294 58.5001 131.256 59.4758 131.181 60.4412C135.289 57.051 140.555 55.0145 146.296 55.0145C159.418 55.0145 170.056 65.6521 170.056 78.7744C170.056 91.4759 160.09 101.85 147.55 102.502V102.534H56.2624V102.405C44.3141 101.156 35 91.0531 35 78.7744C35 66.4702 44.3527 56.3505 56.3366 55.1365C57.5639 35.5257 73.8579 20 93.7781 20C114.497 20 131.294 36.7963 131.294 57.5156Z" fill="url(#paint3_linear_4070_3968)"/>
</g>
<path fill-rule="evenodd" clip-rule="evenodd" d="M100.687 102.534H66.8555C66.8561 100.227 68.7269 98.3566 71.0345 98.3566H73.6839L71.8117 96.4843C70.1796 94.8523 70.1796 92.2063 71.8117 90.5743C73.4437 88.9422 76.0897 88.9422 77.7217 90.5743L79.5931 92.4456V89.7987C79.5931 87.4906 81.4641 85.6196 83.7721 85.6196C86.0801 85.6196 87.9511 87.4906 87.9511 89.7987V92.4475L89.8244 90.5743C91.4564 88.9422 94.1025 88.9422 95.7345 90.5743C97.3665 92.2063 97.3665 94.8523 95.7345 96.4843L93.8622 98.3566H96.5081C98.8158 98.3566 100.687 100.227 100.687 102.534Z" fill="#E0F3FE"/>
<defs>
<filter id="filter0_f_4070_3968" x="29.8627" y="59.8791" width="144.085" height="89.062" filterUnits="userSpaceOnUse" colorInterpolationFilters="sRGB">
<feFlood floodOpacity="0" result="BackgroundImageFix"/>
<feBlend mode="normal" in="SourceGraphic" in2="BackgroundImageFix" result="shape"/>
<feGaussianBlur stdDeviation="16.3255" result="effect1_foregroundBlur_4070_3968"/>
</filter>
<filter id="filter1_bi_4070_3968" x="24.6111" y="9.61105" width="155.834" height="103.312" filterUnits="userSpaceOnUse" colorInterpolationFilters="sRGB">
<feFlood floodOpacity="0" result="BackgroundImageFix"/>
<feGaussianBlur in="BackgroundImageFix" stdDeviation="5.19447"/>
<feComposite in2="SourceAlpha" operator="in" result="effect1_backgroundBlur_4070_3968"/>
<feBlend mode="normal" in="SourceGraphic" in2="effect1_backgroundBlur_4070_3968" result="shape"/>
<feColorMatrix in="SourceAlpha" type="matrix" values="0 0 0 0 0 0 0 0 0 0 0 0 0 0 0 0 0 0 127 0" result="hardAlpha"/>
<feOffset dy="2.96827"/>
<feGaussianBlur stdDeviation="5.93654"/>
<feComposite in2="hardAlpha" operator="arithmetic" k2="-1" k3="1"/>
<feColorMatrix type="matrix" values="0 0 0 0 0 0 0 0 0 0.82 0 0 0 0 1 0 0 0 0.25 0"/>
<feBlend mode="normal" in2="shape" result="effect2_innerShadow_4070_3968"/>
</filter>
<linearGradient id="paint0_linear_4070_3968" x1="71.685" y1="112.604" x2="103.817" y2="85.4841" gradientUnits="userSpaceOnUse">
<stop stopColor="#0056D6"/>
<stop offset="1" stopColor="#ADD8FF"/>
</linearGradient>
<linearGradient id="paint1_linear_4070_3968" x1="112.375" y1="109.146" x2="149.441" y2="77.8617" gradientUnits="userSpaceOnUse">
<stop stopColor="#0056D6"/>
<stop offset="1" stopColor="#ADD8FF"/>
</linearGradient>
<linearGradient id="paint2_linear_4070_3968" x1="101.056" y1="143.563" x2="128.237" y2="120.622" gradientUnits="userSpaceOnUse">
<stop stopColor="#0056D6"/>
<stop offset="1" stopColor="#ADD8FF"/>
</linearGradient>
<linearGradient id="paint3_linear_4070_3968" x1="105.029" y1="131.922" x2="155.675" y2="20" gradientUnits="userSpaceOnUse">
<stop stopColor="#0082DF"/>
<stop offset="0.299998" stopColor="#48B2FF" stopOpacity="0.75"/>
<stop offset="1" stopColor="#3BADFF" stopOpacity="0"/>
</linearGradient>
</defs>
</svg>
